<svg width="294.6000122070312px" height="160.48001708984376px" xmlns="http://www.w3.org/2000/svg" viewBox="102.69999389648439 -5.240008544921878 294.6000122070312 160.48001708984376" style="background: rgba(0, 0, 0, 0) none repeat scroll 0% 0%;" preserveAspectRatio="xMidYMid"><defs><linearGradient id="editing-gradient-gradient" x1="0" x2="1" y1="0.5" y2="0.5" gradientUnits="objectBoundingBox"><stop offset="0" stop-color="#f0f"></stop><stop offset="1" stop-color="#0ff"></stop></linearGradient></defs><g><g transform="translate(148.46000576019287, 103.54000091552734)"><path d="M3.46-4.61L3.46-31.10L3.46-31.10Q3.46-34.37 4.58-36.70L4.58-36.70L4.58-36.70Q5.70-39.04 7.62-40.54L7.62-40.54L7.62-40.54Q9.54-42.05 12.13-42.75L12.13-42.75L12.13-42.75Q14.72-43.46 17.66-43.46L17.66-43.46L17.66-43.46Q22.40-43.46 24.64-42.21L24.64-42.21L24.64-42.21Q26.88-40.96 26.88-37.95L26.88-37.95L26.88-37.95Q26.88-36.67 26.34-35.65L26.34-35.65L26.34-35.65Q25.79-34.62 25.15-34.11L25.15-34.11L25.15-34.11Q23.94-34.43 22.62-34.66L22.62-34.66L22.62-34.66Q21.31-34.88 19.58-34.88L19.58-34.88L19.58-34.88Q16.83-34.88 15.30-33.95L15.30-33.95L15.30-33.95Q13.76-33.02 13.76-30.72L13.76-30.72L13.76-28.67L24.26-28.67L24.26-28.67Q24.64-27.97 24.99-26.91L24.99-26.91L24.99-26.91Q25.34-25.86 25.34-24.58L25.34-24.58L25.34-24.58Q25.34-22.34 24.35-21.34L24.35-21.34L24.35-21.34Q23.36-20.35 21.70-20.35L21.70-20.35L14.34-20.35L14.34-0.06L14.34-0.06Q13.70 0.13 12.32 0.32L12.32 0.32L12.32 0.32Q10.94 0.51 9.47 0.51L9.47 0.51L9.47 0.51Q8.06 0.51 6.94 0.32L6.94 0.32L6.94 0.32Q5.82 0.13 5.06-0.45L5.06-0.45L5.06-0.45Q4.29-1.02 3.87-2.02L3.87-2.02L3.87-2.02Q3.46-3.01 3.46-4.61L3.46-4.61ZM44.35-11.90L30.66-11.90L30.66-11.90Q30.21-12.61 29.82-13.76L29.82-13.76L29.82-13.76Q29.44-14.91 29.44-16.19L29.44-16.19L29.44-16.19Q29.44-18.56 30.53-19.62L30.53-19.62L30.53-19.62Q31.62-20.67 33.34-20.67L33.34-20.67L47.04-20.67L47.04-20.67Q47.42-19.97 47.84-18.82L47.84-18.82L47.84-18.82Q48.26-17.66 48.26-16.38L48.26-16.38L48.26-16.38Q48.26-14.02 47.17-12.96L47.17-12.96L47.17-12.96Q46.08-11.90 44.35-11.90L44.35-11.90ZM68.67-32.06L68.67-32.06L68.67-32.06Q72.32-32.06 75.30-31.14L75.30-31.14L75.30-31.14Q78.27-30.21 80.32-28.74L80.32-28.74L80.32-28.74Q81.60-27.84 82.34-26.75L82.34-26.75L82.34-26.75Q83.07-25.66 83.07-23.94L83.07-23.94L83.07-1.54L83.07-1.54Q83.07 1.86 81.79 4.32L81.79 4.32L81.79 4.32Q80.51 6.78 78.30 8.42L78.30 8.42L78.30 8.42Q76.10 10.05 73.12 10.82L73.12 10.82L73.12 10.82Q70.14 11.58 66.75 11.58L66.75 11.58L66.75 11.58Q60.93 11.58 57.60 10.02L57.60 10.02L57.60 10.02Q54.27 8.45 54.27 4.93L54.27 4.93L54.27 4.93Q54.27 3.46 54.88 2.34L54.88 2.34L54.88 2.34Q55.49 1.22 56.26 0.64L56.26 0.64L56.26 0.64Q58.11 1.66 60.45 2.37L60.45 2.37L60.45 2.37Q62.78 3.07 65.28 3.07L65.28 3.07L65.28 3.07Q68.74 3.07 70.78 1.92L70.78 1.92L70.78 1.92Q72.83 0.77 72.83-1.79L72.83-1.79L72.83-2.82L72.83-2.82Q70.21-1.66 66.43-1.66L66.43-1.66L66.43-1.66Q63.55-1.66 60.96-2.53L60.96-2.53L60.96-2.53Q58.37-3.39 56.42-5.22L56.42-5.22L56.42-5.22Q54.46-7.04 53.28-9.92L53.28-9.92L53.28-9.92Q52.10-12.80 52.10-16.77L52.10-16.77L52.10-16.77Q52.10-20.67 53.34-23.55L53.34-23.55L53.34-23.55Q54.59-26.43 56.80-28.32L56.80-28.32L56.80-28.32Q59.01-30.21 62.05-31.14L62.05-31.14L62.05-31.14Q65.09-32.06 68.67-32.06ZM72.64-11.01L72.64-22.78L72.64-22.78Q72.19-23.04 71.33-23.30L71.33-23.30L71.33-23.30Q70.46-23.55 69.18-23.55L69.18-23.55L69.18-23.55Q66.05-23.55 64.48-21.79L64.48-21.79L64.48-21.79Q62.91-20.03 62.91-16.77L62.91-16.77L62.91-16.77Q62.91-13.06 64.48-11.42L64.48-11.42L64.48-11.42Q66.05-9.79 68.48-9.79L68.48-9.79L68.48-9.79Q71.10-9.79 72.64-11.01L72.64-11.01ZM103.10-6.91L103.10-6.91L103.10-6.91Q104.19-6.91 105.50-7.14L105.50-7.14L105.50-7.14Q106.82-7.36 107.46-7.74L107.46-7.74L107.46-12.86L102.85-12.48L102.85-12.48Q101.06-12.35 99.90-11.71L99.90-11.71L99.90-11.71Q98.75-11.07 98.75-9.79L98.75-9.79L98.75-9.79Q98.75-8.51 99.74-7.71L99.74-7.71L99.74-7.71Q100.74-6.91 103.10-6.91ZM102.59-32.06L102.59-32.06L102.59-32.06Q106.05-32.06 108.90-31.36L108.90-31.36L108.90-31.36Q111.74-30.66 113.76-29.22L113.76-29.22L113.76-29.22Q115.78-27.78 116.86-25.57L116.86-25.57L116.86-25.57Q117.95-23.36 117.95-20.35L117.95-20.35L117.95-6.02L117.95-6.02Q117.95-4.35 117.02-3.30L117.02-3.30L117.02-3.30Q116.10-2.24 114.82-1.47L114.82-1.47L114.82-1.47Q110.66 1.02 103.10 1.02L103.10 1.02L103.10 1.02Q99.71 1.02 96.99 0.38L96.99 0.38L96.99 0.38Q94.27-0.26 92.32-1.54L92.32-1.54L92.32-1.54Q90.37-2.82 89.31-4.80L89.31-4.80L89.31-4.80Q88.26-6.78 88.26-9.41L88.26-9.41L88.26-9.41Q88.26-13.82 90.88-16.19L90.88-16.19L90.88-16.19Q93.50-18.56 99.01-19.14L99.01-19.14L107.39-20.03L107.39-20.48L107.39-20.48Q107.39-22.34 105.76-23.14L105.76-23.14L105.76-23.14Q104.13-23.94 101.06-23.94L101.06-23.94L101.06-23.94Q98.62-23.94 96.32-23.42L96.32-23.42L96.32-23.42Q94.02-22.91 92.16-22.14L92.16-22.14L92.16-22.14Q91.33-22.72 90.75-23.90L90.75-23.90L90.75-23.90Q90.18-25.09 90.18-26.37L90.18-26.37L90.18-26.37Q90.18-28.03 90.98-29.02L90.98-29.02L90.98-29.02Q91.78-30.02 93.44-30.72L93.44-30.72L93.44-30.72Q95.30-31.42 97.82-31.74L97.82-31.74L97.82-31.74Q100.35-32.06 102.59-32.06ZM124.35-39.74L124.35-39.74L124.35-39.74Q124.35-42.18 125.98-43.84L125.98-43.84L125.98-43.84Q127.62-45.50 130.30-45.50L130.30-45.50L130.30-45.50Q132.99-45.50 134.62-43.84L134.62-43.84L134.62-43.84Q136.26-42.18 136.26-39.74L136.26-39.74L136.26-39.74Q136.26-37.31 134.62-35.65L134.62-35.65L134.62-35.65Q132.99-33.98 130.30-33.98L130.30-33.98L130.30-33.98Q127.62-33.98 125.98-35.65L125.98-35.65L125.98-35.65Q124.35-37.31 124.35-39.74ZM135.74-26.11L135.74-0.06L135.74-0.06Q135.04 0.06 133.66 0.29L133.66 0.29L133.66 0.29Q132.29 0.51 130.88 0.51L130.88 0.51L130.88 0.51Q129.47 0.51 128.35 0.32L128.35 0.32L128.35 0.32Q127.23 0.13 126.46-0.45L126.46-0.45L126.46-0.45Q125.70-1.02 125.28-2.02L125.28-2.02L125.28-2.02Q124.86-3.01 124.86-4.61L124.86-4.61L124.86-30.66L124.86-30.66Q125.57-30.78 126.94-31.01L126.94-31.01L126.94-31.01Q128.32-31.23 129.73-31.23L129.73-31.23L129.73-31.23Q131.14-31.23 132.26-31.04L132.26-31.04L132.26-31.04Q133.38-30.85 134.14-30.27L134.14-30.27L134.14-30.27Q134.91-29.70 135.33-28.70L135.33-28.70L135.33-28.70Q135.74-27.71 135.74-26.11L135.74-26.11ZM159.10 1.02L159.10 1.02L159.10 1.02Q155.33 1.02 152.10-0.03L152.10-0.03L152.10-0.03Q148.86-1.09 146.46-3.20L146.46-3.20L146.46-3.20Q144.06-5.31 142.69-8.51L142.69-8.51L142.69-8.51Q141.31-11.71 141.31-16L141.31-16L141.31-16Q141.31-20.22 142.69-23.26L142.69-23.26L142.69-23.26Q144.06-26.30 146.30-28.26L146.30-28.26L146.30-28.26Q148.54-30.21 151.42-31.14L151.42-31.14L151.42-31.14Q154.30-32.06 157.31-32.06L157.31-32.06L157.31-32.06Q160.70-32.06 163.49-31.04L163.49-31.04L163.49-31.04Q166.27-30.02 168.29-28.22L168.29-28.22L168.29-28.22Q170.30-26.43 171.42-23.94L171.42-23.94L171.42-23.94Q172.54-21.44 172.54-18.50L172.54-18.50L172.54-18.50Q172.54-16.32 171.33-15.17L171.33-15.17L171.33-15.17Q170.11-14.02 167.94-13.70L167.94-13.70L152.13-11.33L152.13-11.33Q152.83-9.22 155.01-8.16L155.01-8.16L155.01-8.16Q157.18-7.10 160-7.10L160-7.10L160-7.10Q162.62-7.10 164.96-7.78L164.96-7.78L164.96-7.78Q167.30-8.45 168.77-9.34L168.77-9.34L168.77-9.34Q169.79-8.70 170.50-7.55L170.50-7.55L170.50-7.55Q171.20-6.40 171.20-5.12L171.20-5.12L171.20-5.12Q171.20-2.24 168.51-0.83L168.51-0.83L168.51-0.83Q166.46 0.26 163.90 0.64L163.90 0.64L163.90 0.64Q161.34 1.02 159.10 1.02ZM157.31-24.13L157.31-24.13L157.31-24.13Q155.78-24.13 154.66-23.62L154.66-23.62L154.66-23.62Q153.54-23.10 152.83-22.30L152.83-22.30L152.83-22.30Q152.13-21.50 151.78-20.51L151.78-20.51L151.78-20.51Q151.42-19.52 151.36-18.50L151.36-18.50L162.30-20.29L162.30-20.29Q162.11-21.57 160.90-22.85L160.90-22.85L160.90-22.85Q159.68-24.13 157.31-24.13ZM188.67-21.89L188.67-0.06L188.67-0.06Q188.03 0.13 186.66 0.32L186.66 0.32L186.66 0.32Q185.28 0.51 183.81 0.51L183.81 0.51L183.81 0.51Q182.40 0.51 181.28 0.32L181.28 0.32L181.28 0.32Q180.16 0.13 179.39-0.45L179.39-0.45L179.39-0.45Q178.62-1.02 178.21-2.02L178.21-2.02L178.21-2.02Q177.79-3.01 177.79-4.61L177.79-4.61L177.79-23.81L177.79-23.81Q177.79-25.28 178.34-26.34L178.34-26.34L178.34-26.34Q178.88-27.39 179.90-28.22L179.90-28.22L179.90-28.22Q180.93-29.06 182.43-29.73L182.43-29.73L182.43-29.73Q183.94-30.40 185.66-30.91L185.66-30.91L185.66-30.91Q187.39-31.42 189.25-31.71L189.25-31.71L189.25-31.71Q191.10-32 192.96-32L192.96-32L192.96-32Q196.03-32 197.82-30.82L197.82-30.82L197.82-30.82Q199.62-29.63 199.62-26.94L199.62-26.94L199.62-26.94Q199.62-26.05 199.36-25.18L199.36-25.18L199.36-25.18Q199.10-24.32 198.72-23.62L198.72-23.62L198.72-23.62Q197.38-23.62 195.97-23.49L195.97-23.49L195.97-23.49Q194.56-23.36 193.22-23.10L193.22-23.10L193.22-23.10Q191.87-22.85 190.69-22.56L190.69-22.56L190.69-22.56Q189.50-22.27 188.67-21.89L188.67-21.89Z" fill="url(#editing-gradient-gradient)"></path></g></g><style>text {
  font-size: 64px;
  font-family: Arial Black;
  dominant-baseline: central;
  text-anchor: middle;
}</style></svg>